<?xml version="1.0" standalone="no"?>
<!DOCTYPE svg PUBLIC "-//W3C//DTD SVG 20010904//EN"
 "http://www.w3.org/TR/2001/REC-SVG-20010904/DTD/svg10.dtd">
<svg version="1.0" xmlns="http://www.w3.org/2000/svg"
 width="342.812045pt" height="343.106174pt" viewBox="0 0 342.812045 343.106174"
 preserveAspectRatio="xMidYMid meet">
<metadata>
Created by potrace 1.12, written by Peter Selinger 2001-2015
</metadata>
<g transform="translate(-78.579833,421.683732) scale(0.100000,-0.100000)"
fill="#000000" stroke="none">
<path d="M2320 4214 c-396 -44 -746 -211 -1026 -489 -222 -219 -354 -435 -443
-725 -53 -169 -66 -272 -65 -510 0 -206 2 -235 27 -340 85 -373 236 -644 500
-896 220 -210 494 -361 779 -427 164 -39 195 -42 413 -41 196 1 233 4 340 27
164 35 257 67 410 141 449 219 790 633 909 1101 46 182 50 216 50 440 0 244
-9 310 -71 515 -43 144 -151 364 -241 490 -86 122 -280 316 -402 402 -52 37
-158 99 -235 138 -167 83 -275 119 -485 161 -55 11 -393 21 -460 13z m317 -39
c336 -18 713 -177 973 -412 300 -270 473 -581 551 -988 21 -109 18 -466 -5
-580 -92 -459 -343 -841 -716 -1089 -175 -117 -326 -185 -524 -236 -164 -42
-280 -54 -480 -47 -258 7 -462 58 -685 170 -480 241 -800 665 -908 1203 -13
69 -17 139 -18 309 0 241 12 320 76 523 185 578 696 1020 1309 1131 72 14 261
29 300 25 14 -2 71 -6 127 -9z"/>
<path d="M2310 4034 c-651 -83 -1187 -575 -1319 -1210 -69 -332 -37 -642 99
-956 164 -377 499 -684 901 -826 176 -62 272 -77 504 -77 162 1 230 5 299 19
611 124 1082 586 1218 1196 20 92 23 131 23 320 0 239 -9 298 -72 489 -148
448 -495 802 -950 967 -156 57 -273 76 -483 79 -102 2 -201 1 -220 -1z m350
-39 c224 -18 480 -113 692 -256 120 -82 315 -276 390 -390 308 -462 348 -1032
107 -1514 -80 -159 -153 -259 -284 -391 -321 -322 -719 -472 -1175 -443 -400
25 -780 219 -1044 533 -422 501 -468 1232 -111 1781 254 392 676 645 1138 684
100 8 134 8 287 -4z"/>
<path d="M1765 3427 c-2 -7 -10 -75 -19 -152 -17 -147 -22 -189 -60 -503 -23
-184 -25 -195 -53 -224 -41 -44 -126 -80 -205 -86 -68 -5 -68 -5 -68 21 0 47
110 104 220 114 70 6 80 13 80 55 0 39 -30 52 -106 45 -219 -17 -365 -231
-209 -307 103 -50 278 6 351 111 25 36 30 58 50 227 22 184 72 624 77 671 2
19 -4 26 -26 32 -19 5 -29 4 -32 -4z"/>
<path d="M3103 2761 c-42 -11 -113 -48 -141 -74 -54 -49 -63 -73 -77 -199 -13
-117 -23 -198 -45 -388 -11 -90 -24 -201 -40 -340 -14 -120 -14 -117 21 -122
36 -6 34 -12 48 122 18 169 56 497 77 665 l4 40 98 0 c116 1 168 20 235 88 69
69 72 141 8 186 -34 24 -134 36 -188 22z"/>
<path d="M1834 2710 c-142 -70 -92 -310 65 -310 l31 0 0 60 c0 45 -3 58 -13
54 -8 -3 -24 4 -38 15 -20 16 -22 23 -14 47 12 34 45 43 69 19 12 -13 16 -36
16 -101 l0 -84 55 0 55 0 0 109 c0 96 -3 112 -23 142 -44 66 -127 86 -203 49z"/>
<path d="M2280 2712 c-91 -40 -126 -150 -77 -236 59 -106 205 -106 264 0 37
64 32 74 -32 74 -40 0 -57 -4 -61 -15 -9 -24 -43 -29 -65 -9 -24 21 -24 36 0
65 16 20 21 21 48 10 16 -7 53 -11 81 -9 l52 3 -20 40 c-27 55 -75 85 -131 84
-24 0 -51 -3 -59 -7z"/>
<path d="M2602 2701 c-49 -31 -72 -76 -72 -141 0 -92 60 -160 143 -160 l37 0
0 53 c0 51 -1 53 -32 62 -27 8 -33 15 -33 39 0 39 33 62 61 42 16 -12 20 -29
22 -105 l4 -91 54 0 54 0 0 100 c0 110 -11 150 -54 190 -38 34 -136 40 -184
11z"/>
<path d="M3435 2696 c-16 -7 -43 -28 -60 -45 -28 -30 -30 -38 -30 -106 0 -68
2 -76 30 -105 45 -47 81 -63 133 -57 82 9 134 66 140 154 3 48 0 64 -20 92
-12 19 -35 43 -49 54 -34 25 -105 31 -144 13z m95 -126 c14 -25 5 -57 -19 -70
-40 -21 -81 46 -49 78 19 19 56 14 68 -8z"/>
<path d="M2077 2344 c-4 -4 -7 -62 -7 -130 0 -132 1 -134 58 -134 66 0 72 7
72 76 l0 64 -30 0 c-20 0 -30 -5 -30 -15 0 -8 5 -15 10 -15 6 0 10 -16 10 -35
0 -31 -3 -35 -25 -35 l-25 0 0 100 0 100 25 0 c20 0 27 -6 32 -30 9 -49 35
-38 31 13 l-3 42 -55 3 c-31 2 -59 0 -63 -4z"/>
<path d="M3063 2313 c-4 -10 -14 -49 -23 -88 l-16 -70 -18 78 c-17 71 -36 101
-53 84 -3 -4 7 -60 23 -127 22 -93 33 -120 45 -120 9 0 20 7 23 15 15 41 56
227 51 236 -10 14 -25 11 -32 -8z"/>
<path d="M3600 2199 c0 -117 2 -130 17 -127 9 2 16 6 15 11 -1 4 -2 61 -2 127
0 100 -2 120 -15 120 -13 0 -15 -21 -15 -131z"/>
<path d="M2370 2180 c0 -91 7 -100 78 -92 l42 4 0 79 c0 62 -3 79 -15 79 -11
0 -15 -16 -17 -67 -3 -60 -5 -68 -23 -68 -18 0 -20 8 -23 73 -3 64 -5 72 -22
72 -18 0 -20 -7 -20 -80z"/>
<path d="M2240 2171 c0 -64 3 -81 15 -81 11 0 15 16 17 67 2 44 7 68 16 71 7
2 16 -5 19 -17 8 -30 38 -23 38 9 0 23 -4 25 -52 28 l-53 3 0 -80z"/>
<path d="M2520 2140 c0 -89 3 -110 14 -110 9 0 16 12 18 28 2 22 8 28 35 30
45 4 54 21 51 94 l-3 63 -57 3 -58 3 0 -111z m78 28 c-3 -45 -6 -53 -23 -53
-17 0 -20 8 -23 53 -3 50 -2 52 23 52 25 0 26 -2 23 -52z"/>
<path d="M2664 2236 c-3 -7 -4 -42 -2 -77 l3 -64 58 -3 57 -3 0 81 0 80 -55 0
c-38 0 -57 -4 -61 -14z m84 -68 c-3 -46 -6 -53 -25 -56 -22 -3 -23 0 -23 52 0
53 1 56 26 56 24 0 25 -2 22 -52z"/>
<path d="M3124 2217 c-3 -8 -4 -43 -2 -78 l3 -64 39 -3 c22 -2 50 -1 63 3 23
5 24 9 21 78 l-3 72 -58 3 c-42 2 -59 -1 -63 -11z m86 -67 c0 -47 -2 -50 -25
-50 -23 0 -25 3 -25 50 0 47 2 50 25 50 23 0 25 -3 25 -50z"/>
<path d="M3282 2153 l3 -78 34 -3 c55 -6 81 5 81 33 0 18 -5 25 -20 25 -11 0
-20 -7 -20 -15 0 -9 -10 -15 -26 -15 -24 0 -25 2 -22 52 2 43 7 54 22 56 10 2
23 -3 28 -12 14 -25 40 -20 36 7 -3 19 -10 22 -61 25 l-58 3 3 -78z"/>
<path d="M3437 2211 c-5 -22 0 -31 20 -31 7 0 13 7 13 15 0 9 9 15 25 15 18 0
25 -5 25 -20 0 -15 -7 -20 -29 -20 -50 0 -61 -9 -61 -51 0 -43 8 -47 88 -47
l43 1 -3 76 -3 76 -56 3 c-49 3 -57 0 -62 -17z m87 -70 c11 -18 -6 -41 -30
-41 -19 0 -24 5 -24 25 0 20 5 25 24 25 14 0 27 -4 30 -9z"/>
</g>
</svg>
